<mxfile host="app.diagrams.net" agent="Mozilla/5.0 (Windows NT 10.0; Win64; x64) AppleWebKit/537.36 (KHTML, like Gecko) Chrome/122.0.6261.95 Safari/537.36" version="24.8.3" pages="2">
  <diagram name="第 1 页" id="8NltztY-eXlwmAeAeHeJ">
    <mxGraphModel dx="934" dy="478" grid="1" gridSize="15" guides="1" tooltips="1" connect="1" arrows="1" fold="1" page="1" pageScale="1" pageWidth="583" pageHeight="827" background="#E9FFD4" math="0" shadow="0">
      <root>
        <mxCell id="0" />
        <mxCell id="1" parent="0" />
        <mxCell id="qeL_J5W2RwofJ1SN4jD3-1" value="30秒无CAN通信" style="rounded=1;whiteSpace=wrap;html=1;" parent="1" vertex="1">
          <mxGeometry x="590" y="260" width="110" height="20" as="geometry" />
        </mxCell>
        <mxCell id="qeL_J5W2RwofJ1SN4jD3-52" value="低功耗逻辑流程图" style="rounded=1;whiteSpace=wrap;strokeColor=default;align=center;verticalAlign=middle;fontFamily=Comic Sans MS;fontSize=16;fontColor=default;labelBackgroundColor=default;resizable=1;fillColor=default;gradientColor=#BFFBFF;shadow=1;glass=1;labelBorderColor=default;textShadow=1;rotation=0;movable=1;rotatable=1;deletable=1;editable=1;locked=0;connectable=1;html=1;sketch=1;curveFitting=1;jiggle=2;" parent="1" vertex="1">
          <mxGeometry x="495" y="60" width="138" height="45" as="geometry" />
        </mxCell>
        <mxCell id="qeL_J5W2RwofJ1SN4jD3-5" value="单体电压低于1.9V" style="rounded=1;whiteSpace=wrap;html=1;" parent="1" vertex="1">
          <mxGeometry x="420" y="260" width="110" height="20" as="geometry" />
        </mxCell>
        <mxCell id="qeL_J5W2RwofJ1SN4jD3-6" value="" style="endArrow=classic;html=1;rounded=0;exitX=0.5;exitY=1;exitDx=0;exitDy=0;entryX=0.5;entryY=0;entryDx=0;entryDy=0;" parent="1" source="qeL_J5W2RwofJ1SN4jD3-1" target="qeL_J5W2RwofJ1SN4jD3-7" edge="1">
          <mxGeometry width="50" height="50" relative="1" as="geometry">
            <mxPoint x="530" y="420" as="sourcePoint" />
            <mxPoint x="645" y="340" as="targetPoint" />
          </mxGeometry>
        </mxCell>
        <mxCell id="qeL_J5W2RwofJ1SN4jD3-59" value="无充放电" style="edgeLabel;html=1;align=center;verticalAlign=middle;resizable=0;points=[];strokeColor=#BAC8D3;fontFamily=Helvetica;fontSize=11;fontColor=default;labelBackgroundColor=default;fillColor=#09555B;gradientColor=none;" parent="qeL_J5W2RwofJ1SN4jD3-6" vertex="1" connectable="0">
          <mxGeometry x="-0.2444" y="1" relative="1" as="geometry">
            <mxPoint as="offset" />
          </mxGeometry>
        </mxCell>
        <mxCell id="qeL_J5W2RwofJ1SN4jD3-7" value="进入深度休眠" style="rounded=1;whiteSpace=wrap;html=1;" parent="1" vertex="1">
          <mxGeometry x="590" y="340" width="110" height="20" as="geometry" />
        </mxCell>
        <mxCell id="qeL_J5W2RwofJ1SN4jD3-9" value="进入待机模式" style="rounded=1;whiteSpace=wrap;html=1;" parent="1" vertex="1">
          <mxGeometry x="430" y="340" width="100" height="20" as="geometry" />
        </mxCell>
        <mxCell id="qeL_J5W2RwofJ1SN4jD3-13" value="" style="curved=1;endArrow=classic;html=1;rounded=0;exitX=1;exitY=0.25;exitDx=0;exitDy=0;entryX=0.145;entryY=1.098;entryDx=0;entryDy=0;entryPerimeter=0;" parent="1" source="qeL_J5W2RwofJ1SN4jD3-7" target="qeL_J5W2RwofJ1SN4jD3-14" edge="1">
          <mxGeometry width="50" height="50" relative="1" as="geometry">
            <mxPoint x="530" y="420" as="sourcePoint" />
            <mxPoint x="780" y="290" as="targetPoint" />
            <Array as="points">
              <mxPoint x="750" y="345" />
            </Array>
          </mxGeometry>
        </mxCell>
        <mxCell id="qeL_J5W2RwofJ1SN4jD3-27" value="休眠前动作" style="edgeLabel;html=1;align=center;verticalAlign=middle;resizable=0;points=[];" parent="qeL_J5W2RwofJ1SN4jD3-13" vertex="1" connectable="0">
          <mxGeometry x="0.2728" y="-1" relative="1" as="geometry">
            <mxPoint as="offset" />
          </mxGeometry>
        </mxCell>
        <mxCell id="qeL_J5W2RwofJ1SN4jD3-14" value="1、关闭充放电MOS&lt;div&gt;2、配置唤醒脚功能&lt;/div&gt;&lt;div&gt;3、其他IO配置成配置成IO模拟输入&lt;/div&gt;" style="rounded=1;whiteSpace=wrap;html=1;align=left;" parent="1" vertex="1">
          <mxGeometry x="740" y="210" width="180" height="80" as="geometry" />
        </mxCell>
        <mxCell id="qeL_J5W2RwofJ1SN4jD3-16" value="" style="endArrow=classic;html=1;rounded=0;exitX=0.467;exitY=0.969;exitDx=0;exitDy=0;entryX=0.239;entryY=0;entryDx=0;entryDy=0;exitPerimeter=0;entryPerimeter=0;" parent="1" source="qeL_J5W2RwofJ1SN4jD3-7" target="qeL_J5W2RwofJ1SN4jD3-17" edge="1">
          <mxGeometry width="50" height="50" relative="1" as="geometry">
            <mxPoint x="645.63" y="360" as="sourcePoint" />
            <mxPoint x="644.38" y="420" as="targetPoint" />
          </mxGeometry>
        </mxCell>
        <mxCell id="qeL_J5W2RwofJ1SN4jD3-18" value="唤醒条件" style="edgeLabel;html=1;align=center;verticalAlign=middle;resizable=0;points=[];" parent="qeL_J5W2RwofJ1SN4jD3-16" vertex="1" connectable="0">
          <mxGeometry x="-0.3476" y="3" relative="1" as="geometry">
            <mxPoint x="-3" y="10" as="offset" />
          </mxGeometry>
        </mxCell>
        <mxCell id="qeL_J5W2RwofJ1SN4jD3-17" value="1、CAN通讯（PC13下降沿）&lt;div&gt;2、WKUP（PA0&lt;span style=&quot;background-color: initial;&quot;&gt;上升沿&lt;/span&gt;&lt;span style=&quot;background-color: initial;&quot;&gt;）&lt;/span&gt;&lt;/div&gt;&lt;div&gt;3、&lt;span style=&quot;background-color: initial;&quot;&gt;充电器&lt;/span&gt;&lt;span style=&quot;background-color: initial;&quot;&gt;CHG_DETE（PB9高变低）&lt;/span&gt;&lt;/div&gt;" style="rounded=1;whiteSpace=wrap;html=1;align=left;" parent="1" vertex="1">
          <mxGeometry x="590" y="420" width="215" height="50" as="geometry" />
        </mxCell>
        <mxCell id="qeL_J5W2RwofJ1SN4jD3-19" value="" style="endArrow=classic;html=1;rounded=0;entryX=0.71;entryY=-0.053;entryDx=0;entryDy=0;entryPerimeter=0;" parent="1" source="qeL_J5W2RwofJ1SN4jD3-9" target="qeL_J5W2RwofJ1SN4jD3-21" edge="1">
          <mxGeometry width="50" height="50" relative="1" as="geometry">
            <mxPoint x="474.5" y="360" as="sourcePoint" />
            <mxPoint x="474.5" y="421" as="targetPoint" />
          </mxGeometry>
        </mxCell>
        <mxCell id="qeL_J5W2RwofJ1SN4jD3-20" value="唤醒条件" style="edgeLabel;html=1;align=center;verticalAlign=middle;resizable=0;points=[];" parent="qeL_J5W2RwofJ1SN4jD3-19" vertex="1" connectable="0">
          <mxGeometry x="-0.3476" y="3" relative="1" as="geometry">
            <mxPoint x="-3" y="10" as="offset" />
          </mxGeometry>
        </mxCell>
        <mxCell id="qeL_J5W2RwofJ1SN4jD3-21" value="1、WKUP（PA0上升沿）&lt;div&gt;2、RTC30秒定时唤醒&lt;/div&gt;" style="rounded=1;whiteSpace=wrap;html=1;align=left;" parent="1" vertex="1">
          <mxGeometry x="355" y="420" width="175" height="50" as="geometry" />
        </mxCell>
        <mxCell id="qeL_J5W2RwofJ1SN4jD3-23" value="1、时钟初始化&lt;div&gt;2、外设初始化&lt;/div&gt;" style="rounded=1;whiteSpace=wrap;html=1;align=left;" parent="1" vertex="1">
          <mxGeometry x="870" y="330" width="129" height="30" as="geometry" />
        </mxCell>
        <mxCell id="qeL_J5W2RwofJ1SN4jD3-25" value="" style="endArrow=classic;html=1;rounded=0;edgeStyle=orthogonalEdgeStyle;curved=1;entryX=0.5;entryY=1;entryDx=0;entryDy=0;exitX=0;exitY=0.5;exitDx=0;exitDy=0;" parent="1" source="qeL_J5W2RwofJ1SN4jD3-21" target="qeL_J5W2RwofJ1SN4jD3-26" edge="1">
          <mxGeometry width="50" height="50" relative="1" as="geometry">
            <mxPoint x="305" y="410" as="sourcePoint" />
            <mxPoint x="310" y="360" as="targetPoint" />
          </mxGeometry>
        </mxCell>
        <mxCell id="qeL_J5W2RwofJ1SN4jD3-28" value="唤醒后动作" style="edgeLabel;html=1;align=center;verticalAlign=middle;resizable=0;points=[];" parent="qeL_J5W2RwofJ1SN4jD3-25" vertex="1" connectable="0">
          <mxGeometry x="0.1253" y="-8" relative="1" as="geometry">
            <mxPoint as="offset" />
          </mxGeometry>
        </mxCell>
        <mxCell id="qeL_J5W2RwofJ1SN4jD3-26" value="系统复位" style="rounded=1;whiteSpace=wrap;html=1;" parent="1" vertex="1">
          <mxGeometry x="220" y="340" width="80" height="20" as="geometry" />
        </mxCell>
        <mxCell id="qeL_J5W2RwofJ1SN4jD3-29" value="" style="endArrow=classic;html=1;rounded=0;exitX=0;exitY=0.5;exitDx=0;exitDy=0;entryX=0;entryY=0.5;entryDx=0;entryDy=0;edgeStyle=orthogonalEdgeStyle;curved=1;" parent="1" source="qeL_J5W2RwofJ1SN4jD3-26" target="qeL_J5W2RwofJ1SN4jD3-30" edge="1">
          <mxGeometry width="50" height="50" relative="1" as="geometry">
            <mxPoint x="530" y="380" as="sourcePoint" />
            <mxPoint x="580" y="330" as="targetPoint" />
            <Array as="points">
              <mxPoint x="160" y="350" />
              <mxPoint x="160" y="120" />
              <mxPoint x="504" y="120" />
            </Array>
          </mxGeometry>
        </mxCell>
        <mxCell id="qeL_J5W2RwofJ1SN4jD3-30" value="正常运行" style="rounded=1;whiteSpace=wrap;html=1;" parent="1" vertex="1">
          <mxGeometry x="504" y="120" width="120" height="20" as="geometry" />
        </mxCell>
        <mxCell id="qeL_J5W2RwofJ1SN4jD3-32" value="" style="curved=1;endArrow=classic;html=1;rounded=0;edgeStyle=orthogonalEdgeStyle;exitX=0.75;exitY=1;exitDx=0;exitDy=0;entryX=0.25;entryY=0;entryDx=0;entryDy=0;" parent="1" edge="1">
          <mxGeometry width="50" height="50" relative="1" as="geometry">
            <mxPoint x="590" y="140" as="sourcePoint" />
            <mxPoint x="613.5" y="260" as="targetPoint" />
            <Array as="points">
              <mxPoint x="614" y="140" />
              <mxPoint x="614" y="180" />
            </Array>
          </mxGeometry>
        </mxCell>
        <mxCell id="qeL_J5W2RwofJ1SN4jD3-35" value="检测" style="edgeLabel;html=1;align=center;verticalAlign=middle;resizable=0;points=[];" parent="qeL_J5W2RwofJ1SN4jD3-32" vertex="1" connectable="0">
          <mxGeometry x="0.0927" y="-1" relative="1" as="geometry">
            <mxPoint as="offset" />
          </mxGeometry>
        </mxCell>
        <mxCell id="qeL_J5W2RwofJ1SN4jD3-33" value="" style="curved=1;endArrow=classic;html=1;rounded=0;edgeStyle=orthogonalEdgeStyle;exitX=0.411;exitY=1.067;exitDx=0;exitDy=0;exitPerimeter=0;entryX=0.75;entryY=0;entryDx=0;entryDy=0;" parent="1" source="qeL_J5W2RwofJ1SN4jD3-30" target="qeL_J5W2RwofJ1SN4jD3-5" edge="1">
          <mxGeometry width="50" height="50" relative="1" as="geometry">
            <mxPoint x="530" y="280" as="sourcePoint" />
            <mxPoint x="580" y="230" as="targetPoint" />
            <Array as="points">
              <mxPoint x="503" y="141" />
              <mxPoint x="503" y="200" />
            </Array>
          </mxGeometry>
        </mxCell>
        <mxCell id="qeL_J5W2RwofJ1SN4jD3-34" value="检测" style="edgeLabel;html=1;align=center;verticalAlign=middle;resizable=0;points=[];" parent="qeL_J5W2RwofJ1SN4jD3-33" vertex="1" connectable="0">
          <mxGeometry x="0.2506" relative="1" as="geometry">
            <mxPoint as="offset" />
          </mxGeometry>
        </mxCell>
        <mxCell id="qeL_J5W2RwofJ1SN4jD3-37" value="" style="curved=1;endArrow=classic;html=1;rounded=0;edgeStyle=orthogonalEdgeStyle;exitX=1;exitY=0.5;exitDx=0;exitDy=0;entryX=0.5;entryY=1;entryDx=0;entryDy=0;" parent="1" source="qeL_J5W2RwofJ1SN4jD3-17" target="qeL_J5W2RwofJ1SN4jD3-23" edge="1">
          <mxGeometry width="50" height="50" relative="1" as="geometry">
            <mxPoint x="819" y="450" as="sourcePoint" />
            <mxPoint x="869.47" y="400" as="targetPoint" />
          </mxGeometry>
        </mxCell>
        <mxCell id="qeL_J5W2RwofJ1SN4jD3-38" value="唤醒后动作" style="edgeLabel;html=1;align=center;verticalAlign=middle;resizable=0;points=[];" parent="qeL_J5W2RwofJ1SN4jD3-37" vertex="1" connectable="0">
          <mxGeometry x="-0.1413" y="15" relative="1" as="geometry">
            <mxPoint as="offset" />
          </mxGeometry>
        </mxCell>
        <mxCell id="qeL_J5W2RwofJ1SN4jD3-39" value="" style="curved=1;endArrow=classic;html=1;rounded=0;edgeStyle=orthogonalEdgeStyle;entryX=1;entryY=0.5;entryDx=0;entryDy=0;exitX=0.89;exitY=0.033;exitDx=0;exitDy=0;exitPerimeter=0;" parent="1" source="qeL_J5W2RwofJ1SN4jD3-23" target="qeL_J5W2RwofJ1SN4jD3-30" edge="1">
          <mxGeometry width="50" height="50" relative="1" as="geometry">
            <mxPoint x="930" y="339.53" as="sourcePoint" />
            <mxPoint x="980" y="289.53" as="targetPoint" />
            <Array as="points">
              <mxPoint x="1000" y="331" />
              <mxPoint x="1000" y="120" />
              <mxPoint x="624" y="120" />
            </Array>
          </mxGeometry>
        </mxCell>
        <mxCell id="qeL_J5W2RwofJ1SN4jD3-40" value="1、配置RTC30秒唤醒&lt;div&gt;2、配置WKUP唤醒&lt;/div&gt;&lt;div&gt;3、关闭充放电MOS&lt;/div&gt;&lt;div&gt;4、其他IO配置成模拟输入&lt;/div&gt;" style="rounded=1;whiteSpace=wrap;html=1;align=left;" parent="1" vertex="1">
          <mxGeometry x="220" y="225" width="160" height="90" as="geometry" />
        </mxCell>
        <mxCell id="qeL_J5W2RwofJ1SN4jD3-41" value="" style="curved=1;endArrow=classic;html=1;rounded=0;edgeStyle=orthogonalEdgeStyle;exitX=0;exitY=0.5;exitDx=0;exitDy=0;" parent="1" source="qeL_J5W2RwofJ1SN4jD3-9" target="qeL_J5W2RwofJ1SN4jD3-40" edge="1">
          <mxGeometry width="50" height="50" relative="1" as="geometry">
            <mxPoint x="570" y="400" as="sourcePoint" />
            <mxPoint x="620" y="350" as="targetPoint" />
          </mxGeometry>
        </mxCell>
        <mxCell id="qeL_J5W2RwofJ1SN4jD3-42" value="待机前动作" style="edgeLabel;html=1;align=center;verticalAlign=middle;resizable=0;points=[];" parent="qeL_J5W2RwofJ1SN4jD3-41" vertex="1" connectable="0">
          <mxGeometry x="-0.1336" y="-6" relative="1" as="geometry">
            <mxPoint as="offset" />
          </mxGeometry>
        </mxCell>
        <mxCell id="qeL_J5W2RwofJ1SN4jD3-45" value="" style="curved=1;endArrow=classic;html=1;rounded=0;sketch=1;hachureGap=4;jiggle=2;curveFitting=1;fontFamily=Architects Daughter;fontSource=https%3A%2F%2Ffonts.googleapis.com%2Fcss%3Ffamily%3DArchitects%2BDaughter;edgeStyle=orthogonalEdgeStyle;exitX=0.162;exitY=-0.119;exitDx=0;exitDy=0;exitPerimeter=0;entryX=0;entryY=0.5;entryDx=0;entryDy=0;" parent="1" source="qeL_J5W2RwofJ1SN4jD3-5" target="qeL_J5W2RwofJ1SN4jD3-30" edge="1">
          <mxGeometry width="50" height="50" relative="1" as="geometry">
            <mxPoint x="400" y="215" as="sourcePoint" />
            <mxPoint x="399.9999999999998" y="200" as="targetPoint" />
          </mxGeometry>
        </mxCell>
        <mxCell id="qeL_J5W2RwofJ1SN4jD3-46" value="检测到充电" style="edgeLabel;html=1;align=center;verticalAlign=middle;resizable=0;points=[];sketch=1;hachureGap=4;jiggle=2;curveFitting=1;fontFamily=Architects Daughter;fontSource=https%3A%2F%2Ffonts.googleapis.com%2Fcss%3Ffamily%3DArchitects%2BDaughter;" parent="qeL_J5W2RwofJ1SN4jD3-45" vertex="1" connectable="0">
          <mxGeometry x="-0.2955" y="-5" relative="1" as="geometry">
            <mxPoint x="-13" y="-9" as="offset" />
          </mxGeometry>
        </mxCell>
        <mxCell id="qeL_J5W2RwofJ1SN4jD3-48" value="" style="curved=1;endArrow=classic;html=1;rounded=0;strokeColor=#0B4D6A;edgeStyle=orthogonalEdgeStyle;exitX=0.25;exitY=1;exitDx=0;exitDy=0;entryX=0.17;entryY=0.088;entryDx=0;entryDy=0;entryPerimeter=0;" parent="1" source="qeL_J5W2RwofJ1SN4jD3-5" target="qeL_J5W2RwofJ1SN4jD3-9" edge="1">
          <mxGeometry width="50" height="50" relative="1" as="geometry">
            <mxPoint x="525" y="365" as="sourcePoint" />
            <mxPoint x="575" y="315" as="targetPoint" />
          </mxGeometry>
        </mxCell>
        <mxCell id="qeL_J5W2RwofJ1SN4jD3-49" value="未检测到充电" style="edgeLabel;html=1;align=center;verticalAlign=middle;resizable=0;points=[];strokeColor=#BAC8D3;fontColor=default;fillColor=#09555B;" parent="qeL_J5W2RwofJ1SN4jD3-48" vertex="1" connectable="0">
          <mxGeometry x="-0.129" y="1" relative="1" as="geometry">
            <mxPoint as="offset" />
          </mxGeometry>
        </mxCell>
        <mxCell id="qeL_J5W2RwofJ1SN4jD3-57" value="" style="curved=1;endArrow=classic;html=1;rounded=0;strokeColor=#0B4D6A;fontFamily=Helvetica;fontSize=11;fontColor=#EEEEEE;labelBackgroundColor=default;resizable=0;edgeStyle=orthogonalEdgeStyle;entryX=1;entryY=0.75;entryDx=0;entryDy=0;exitX=0.75;exitY=0;exitDx=0;exitDy=0;" parent="1" source="qeL_J5W2RwofJ1SN4jD3-1" target="qeL_J5W2RwofJ1SN4jD3-30" edge="1">
          <mxGeometry width="50" height="50" relative="1" as="geometry">
            <mxPoint x="540" y="305" as="sourcePoint" />
            <mxPoint x="590" y="255" as="targetPoint" />
          </mxGeometry>
        </mxCell>
        <mxCell id="qeL_J5W2RwofJ1SN4jD3-58" value="有充放电" style="edgeLabel;html=1;align=center;verticalAlign=middle;resizable=0;points=[];strokeColor=#BAC8D3;fontFamily=Helvetica;fontSize=11;fontColor=#000000;labelBackgroundColor=default;fillColor=#09555B;gradientColor=none;" parent="qeL_J5W2RwofJ1SN4jD3-57" vertex="1" connectable="0">
          <mxGeometry x="-0.074" y="10" relative="1" as="geometry">
            <mxPoint as="offset" />
          </mxGeometry>
        </mxCell>
        <mxCell id="QtC4I7-qf9C3lgNzMqM0-3" value="" style="curved=1;endArrow=classic;html=1;rounded=0;strokeColor=#0B4D6A;fontFamily=Helvetica;fontSize=11;fontColor=#EEEEEE;labelBackgroundColor=default;resizable=0;edgeStyle=orthogonalEdgeStyle;exitX=1;exitY=1;exitDx=0;exitDy=0;" edge="1" parent="1" source="qeL_J5W2RwofJ1SN4jD3-5">
          <mxGeometry width="50" height="50" relative="1" as="geometry">
            <mxPoint x="555" y="425" as="sourcePoint" />
            <mxPoint x="555" y="510" as="targetPoint" />
            <Array as="points">
              <mxPoint x="555" y="280" />
            </Array>
          </mxGeometry>
        </mxCell>
        <mxCell id="QtC4I7-qf9C3lgNzMqM0-4" value="" style="curved=1;endArrow=classic;html=1;rounded=0;strokeColor=#0B4D6A;fontFamily=Helvetica;fontSize=11;fontColor=#EEEEEE;labelBackgroundColor=default;resizable=0;edgeStyle=orthogonalEdgeStyle;exitX=0;exitY=0.75;exitDx=0;exitDy=0;" edge="1" parent="1" source="qeL_J5W2RwofJ1SN4jD3-1">
          <mxGeometry width="50" height="50" relative="1" as="geometry">
            <mxPoint x="555" y="425" as="sourcePoint" />
            <mxPoint x="570" y="510" as="targetPoint" />
            <Array as="points">
              <mxPoint x="570" y="275" />
            </Array>
          </mxGeometry>
        </mxCell>
        <mxCell id="QtC4I7-qf9C3lgNzMqM0-5" value="此时如果检测到充电器在线却没有充电的情况如何处理？" style="rounded=1;whiteSpace=wrap;html=1;align=center;verticalAlign=middle;fontFamily=Helvetica;fontSize=11;labelBackgroundColor=default;resizable=1;movable=1;rotatable=1;deletable=1;editable=1;locked=0;connectable=1;fillColor=#ffe6cc;strokeColor=#d79b00;" vertex="1" parent="1">
          <mxGeometry x="478.5" y="510" width="171" height="60" as="geometry" />
        </mxCell>
        <mxCell id="QtC4I7-qf9C3lgNzMqM0-6" value="&lt;span style=&quot;font-size: 12px; text-align: left; background-color: rgb(251, 251, 251);&quot;&gt;AFE低功耗（可能退出保护，待验&lt;/span&gt;&lt;span style=&quot;background-color: rgb(251, 251, 251); font-size: 12px; text-align: left;&quot;&gt;证）？&lt;/span&gt;" style="rounded=1;whiteSpace=wrap;html=1;strokeColor=#d79b00;align=center;verticalAlign=middle;fontFamily=Helvetica;fontSize=11;labelBackgroundColor=default;resizable=1;fillColor=#ffe6cc;movable=1;rotatable=1;deletable=1;editable=1;locked=0;connectable=1;" vertex="1" parent="1">
          <mxGeometry x="260" y="510" width="145" height="60" as="geometry" />
        </mxCell>
        <mxCell id="QtC4I7-qf9C3lgNzMqM0-7" value="" style="curved=1;endArrow=classic;html=1;rounded=0;strokeColor=#0B4D6A;fontFamily=Helvetica;fontSize=11;fontColor=#EEEEEE;labelBackgroundColor=default;resizable=0;edgeStyle=orthogonalEdgeStyle;exitX=0;exitY=1;exitDx=0;exitDy=0;entryX=0.25;entryY=0;entryDx=0;entryDy=0;" edge="1" parent="1" source="qeL_J5W2RwofJ1SN4jD3-9" target="QtC4I7-qf9C3lgNzMqM0-6">
          <mxGeometry width="50" height="50" relative="1" as="geometry">
            <mxPoint x="150" y="464" as="sourcePoint" />
            <mxPoint x="200" y="414" as="targetPoint" />
            <Array as="points">
              <mxPoint x="296" y="360" />
            </Array>
          </mxGeometry>
        </mxCell>
        <mxCell id="QtC4I7-qf9C3lgNzMqM0-9" value="&lt;span style=&quot;font-size: 12px; text-align: left; background-color: rgb(251, 251, 251);&quot;&gt;AFE低功耗（可能退出保护，待验&lt;/span&gt;&lt;span style=&quot;background-color: rgb(251, 251, 251); font-size: 12px; text-align: left;&quot;&gt;证）？&lt;/span&gt;" style="rounded=1;whiteSpace=wrap;html=1;strokeColor=#d79b00;align=center;verticalAlign=middle;fontFamily=Helvetica;fontSize=11;labelBackgroundColor=default;resizable=1;fillColor=#ffe6cc;movable=1;rotatable=1;deletable=1;editable=1;locked=0;connectable=1;" vertex="1" parent="1">
          <mxGeometry x="730" y="510" width="155" height="60" as="geometry" />
        </mxCell>
        <mxCell id="QtC4I7-qf9C3lgNzMqM0-10" value="" style="curved=1;endArrow=classic;html=1;rounded=0;strokeColor=#0B4D6A;fontFamily=Helvetica;fontSize=11;fontColor=#EEEEEE;labelBackgroundColor=default;resizable=0;edgeStyle=orthogonalEdgeStyle;entryX=0.75;entryY=0;entryDx=0;entryDy=0;exitX=1;exitY=0.75;exitDx=0;exitDy=0;" edge="1" parent="1" source="qeL_J5W2RwofJ1SN4jD3-7" target="QtC4I7-qf9C3lgNzMqM0-9">
          <mxGeometry width="50" height="50" relative="1" as="geometry">
            <mxPoint x="555" y="425" as="sourcePoint" />
            <mxPoint x="605" y="375" as="targetPoint" />
          </mxGeometry>
        </mxCell>
      </root>
    </mxGraphModel>
  </diagram>
  <diagram id="5C_NtEoVXC750vhe58hj" name="第 2 页">
    <mxGraphModel dx="794" dy="581" grid="1" gridSize="15" guides="1" tooltips="1" connect="1" arrows="1" fold="1" page="1" pageScale="1" pageWidth="583" pageHeight="827" math="0" shadow="0">
      <root>
        <mxCell id="0" />
        <mxCell id="1" parent="0" />
      </root>
    </mxGraphModel>
  </diagram>
</mxfile>
